<svg xmlns="http://www.w3.org/2000/svg" viewBox="0 0 1240 840" width="1240" height="840" font-family="Calibri, &#39;Segoe UI&#39;, &#39;Helvetica Neue&#39;, Arial, sans-serif">
<rect x="0" y="0" width="1240" height="840" fill="#ffffff"></rect>
<defs><filter id="card" x="-25%" y="-25%" width="150%" height="150%"><feDropShadow dx="0" dy="2" stdDeviation="6" flood-color="#22305a" flood-opacity="0.13"></feDropShadow></filter></defs>
<rect x="0" y="0" width="1240" height="6" rx="0" ry="0" fill="#1F3864"></rect><rect x="50" y="38" width="103.8" height="24" rx="12" ry="12" fill="#1F3864"></rect><text x="101.9" y="54.5" font-size="12" font-weight="700" fill="#ffffff" text-anchor="middle" letter-spacing="1.2">FIGURE A2</text><text x="50" y="98" font-size="27" font-weight="700" fill="#1F3864" text-anchor="start">Deployment / Test Scenario Map</text><text x="50" y="124" font-size="15" font-weight="400" fill="#44546A" text-anchor="start">4 m × 4 m four-room arena with the three robots in action.</text><line x1="50" y1="144" x2="1190" y2="144" stroke="#E6EAF2" stroke-width="1.5"></line><rect x="80" y="186" width="600" height="560" rx="6" ry="6" fill="#FBFCFE" stroke="#1F3864" stroke-width="3"></rect><line x1="380" y1="186" x2="380" y2="365.20000000000005" stroke="#1F3864" stroke-width="3"></line><line x1="380" y1="494" x2="380" y2="746" stroke="#1F3864" stroke-width="3"></line><line x1="80" y1="466" x2="260" y2="466" stroke="#1F3864" stroke-width="3"></line><line x1="392" y1="466" x2="680" y2="466" stroke="#1F3864" stroke-width="3"></line><text x="96" y="212" font-size="12" font-weight="700" fill="#8A94A6" text-anchor="start">Room A</text><text x="396" y="212" font-size="12" font-weight="700" fill="#8A94A6" text-anchor="start">Room B</text><text x="96" y="490" font-size="12" font-weight="700" fill="#8A94A6" text-anchor="start">Room C</text><text x="396" y="490" font-size="12" font-weight="700" fill="#8A94A6" text-anchor="start">Room D</text><path d="M230,336 L350,266 A140,140 0 0,1 350,406 Z" fill="#2E6FB7" opacity="0.16"></path><circle cx="230" cy="336" r="17" fill="#2E6FB7"></circle><g transform="translate(230,336) scale(0.6)" fill="none" stroke="#ffffff" stroke-width="2" stroke-linecap="round" stroke-linejoin="round"><circle cx="0" cy="7" r="2"></circle><path d="M-6,7 A6,6 0 0,1 6,7"></path><path d="M-10,7 A10,10 0 0,1 10,7"></path><path d="M-13,7 A13,13 0 0,1 13,7" opacity="0.55"></path><path d="M0,5 L0,-3"></path><path d="M-1.7,5.6 L-8,1"></path><path d="M1.7,5.6 L8,1"></path></g><text x="230" y="370" font-size="12.5" font-weight="700" fill="#2E6FB7" text-anchor="middle">Alpha</text><g transform="translate(574,330) scale(1.4)" fill="none" stroke="#4E9A51" stroke-width="2" stroke-linecap="round" stroke-linejoin="round"><path d="M-8,5 a4,4 0 0,1 0.4,-8 a5,5 0 0,1 9.3,-1.6 a4,4 0 0,1 2.3,9.6 z"></path><line x1="-4" y1="-7.5" x2="-4" y2="-10.5"></line><line x1="1" y1="-8.5" x2="1" y2="-11.5"></line><line x1="6" y1="-7.5" x2="6" y2="-10.5"></line></g><circle cx="530" cy="336" r="17" fill="#4E9A51"></circle><g transform="translate(530,336) scale(0.6)" fill="none" stroke="#ffffff" stroke-width="2" stroke-linecap="round" stroke-linejoin="round"><path d="M-8,5 a4,4 0 0,1 0.4,-8 a5,5 0 0,1 9.3,-1.6 a4,4 0 0,1 2.3,9.6 z"></path><line x1="-4" y1="-7.5" x2="-4" y2="-10.5"></line><line x1="1" y1="-8.5" x2="1" y2="-11.5"></line><line x1="6" y1="-7.5" x2="6" y2="-10.5"></line></g><text x="530" y="370" font-size="12.5" font-weight="700" fill="#4E9A51" text-anchor="middle">Gamma</text><g transform="translate(530,612) scale(1.7)" fill="none" stroke="#C0504D" stroke-width="2" stroke-linecap="round" stroke-linejoin="round"><path d="M0,9 C-7,4 -5,-2 -0.5,-9 C1,-3 7,-2 4,4 C3,6.5 1.6,8 0,9 Z"></path><path d="M0,9 C-2.5,7 -2,3.5 0,1 C1.4,3.5 2,6 0,9 Z"></path></g><polyline points="252,620 350,586 496,626" fill="none" stroke="#C0504D" stroke-width="2.6" stroke-linejoin="round" stroke-linecap="round" stroke-dasharray="7 5"></polyline><polygon points="496,626 486.63418521179904,628.0169068776509 488.97002391197384,619.4910956220128" fill="#C0504D"></polygon><g fill="#2E6FB7"><circle cx="260" cy="612" r="3"></circle><circle cx="272" cy="609" r="2.6"></circle><circle cx="284" cy="606" r="2.2"></circle><circle cx="296" cy="603" r="1.7999999999999998"></circle></g><circle cx="230" cy="626" r="17" fill="#C0504D"></circle><g transform="translate(230,626) scale(0.6)" fill="none" stroke="#ffffff" stroke-width="2" stroke-linecap="round" stroke-linejoin="round"><path d="M0,-9 C5,-2 6,3 0,9 C-6,3 -5,-2 0,-9 Z"></path><path d="M-3,2 C-3,5 3,5 3,2"></path></g><text x="230" y="660" font-size="12.5" font-weight="700" fill="#C0504D" text-anchor="middle">Beta</text><line x1="80" y1="768" x2="230" y2="768" stroke="#44546A" stroke-width="2"></line><line x1="80" y1="763" x2="80" y2="773" stroke="#44546A" stroke-width="2"></line><line x1="230" y1="763" x2="230" y2="773" stroke="#44546A" stroke-width="2"></line><text x="155" y="786" font-size="12" font-weight="600" fill="#44546A" text-anchor="middle">1 m  (arena 4 m × 4 m)</text><rect x="760" y="186" width="400" height="150" rx="12" ry="12" fill="#EEF2F8" stroke="#E6EAF2" stroke-width="1.4" filter="url(#card)"></rect><g transform="translate(800,244) scale(1.1)" fill="none" stroke="#1F3864" stroke-width="2" stroke-linecap="round" stroke-linejoin="round"><rect x="-10" y="-7" width="20" height="13" rx="1.5"></rect><path d="M-13,9 h26 l-2,-3 h-22 z"></path></g><text x="832" y="236" font-size="15.5" font-weight="700" fill="#1F3864" text-anchor="start">Operations Center</text><text x="832" y="258" font-size="12" font-weight="400" fill="#44546A" text-anchor="start">operator laptop · PySide6 console</text><g transform="translate(800,298) scale(1)" fill="none" stroke="#1F3864" stroke-width="2" stroke-linecap="round" stroke-linejoin="round"><path d="M-12,-2 a17,17 0 0,1 24,0"></path><path d="M-7.5,3 a10.5,10.5 0 0,1 15,0"></path></g><text x="832" y="298" font-size="14" font-weight="700" fill="#1F3864" text-anchor="start">Wi-Fi LAN router</text><text x="832" y="316" font-size="11.5" font-weight="400" fill="#44546A" text-anchor="start">Pis 5 GHz · Gamma 2.4 GHz</text><rect x="760" y="356" width="400" height="250" rx="12" ry="12" fill="#ffffff" stroke="#E6EAF2" stroke-width="1.4" filter="url(#card)"></rect><text x="782" y="386" font-size="12" font-weight="700" fill="#8A94A6" text-anchor="start" letter-spacing="1.5">LEGEND</text><circle cx="798" cy="426" r="15" fill="#2E6FB7"></circle><g transform="translate(798,426) scale(0.55)" fill="none" stroke="#ffffff" stroke-width="2" stroke-linecap="round" stroke-linejoin="round"><circle cx="0" cy="7" r="2"></circle><path d="M-6,7 A6,6 0 0,1 6,7"></path><path d="M-10,7 A10,10 0 0,1 10,7"></path><path d="M-13,7 A13,13 0 0,1 13,7" opacity="0.55"></path><path d="M0,5 L0,-3"></path><path d="M-1.7,5.6 L-8,1"></path><path d="M1.7,5.6 L8,1"></path></g><text x="826" y="422" font-size="14.5" font-weight="700" fill="#1A1A1A" text-anchor="start">Alpha — Mapper</text><text x="826" y="441" font-size="12" font-weight="400" fill="#44546A" text-anchor="start">sweeps lidar, builds the map</text><circle cx="798" cy="484" r="15" fill="#C0504D"></circle><g transform="translate(798,484) scale(0.55)" fill="none" stroke="#ffffff" stroke-width="2" stroke-linecap="round" stroke-linejoin="round"><path d="M0,-9 C5,-2 6,3 0,9 C-6,3 -5,-2 0,-9 Z"></path><path d="M-3,2 C-3,5 3,5 3,2"></path></g><text x="826" y="480" font-size="14.5" font-weight="700" fill="#1A1A1A" text-anchor="start">Beta — Intervener</text><text x="826" y="499" font-size="12" font-weight="400" fill="#44546A" text-anchor="start">drives to fire, runs water pump</text><circle cx="798" cy="542" r="15" fill="#4E9A51"></circle><g transform="translate(798,542) scale(0.55)" fill="none" stroke="#ffffff" stroke-width="2" stroke-linecap="round" stroke-linejoin="round"><path d="M-8,5 a4,4 0 0,1 0.4,-8 a5,5 0 0,1 9.3,-1.6 a4,4 0 0,1 2.3,9.6 z"></path><line x1="-4" y1="-7.5" x2="-4" y2="-10.5"></line><line x1="1" y1="-8.5" x2="1" y2="-11.5"></line><line x1="6" y1="-7.5" x2="6" y2="-10.5"></line></g><text x="826" y="538" font-size="14.5" font-weight="700" fill="#1A1A1A" text-anchor="start">Gamma — Inspector</text><text x="826" y="557" font-size="12" font-weight="400" fill="#44546A" text-anchor="start">sniffs gas, raises alarm</text><line x1="50" y1="796" x2="1190" y2="796" stroke="#E6EAF2" stroke-width="1.5"></line><rect x="50" y="810" width="11" height="11" rx="2.5" ry="2.5" fill="#1F3864"></rect><text x="68" y="819" font-size="12.5" font-weight="700" fill="#1F3864" text-anchor="start">Swarm Robot System</text><text x="1190" y="819" font-size="12" font-weight="400" fill="#8A94A6" text-anchor="end">§1.6 Scope · §5.1.2 Test Environment</text>
</svg>