<svg xmlns="http://www.w3.org/2000/svg" viewBox="0 0 1280 826" width="1280" height="826" font-family="Calibri, &#39;Segoe UI&#39;, &#39;Helvetica Neue&#39;, Arial, sans-serif">
<rect x="0" y="0" width="1280" height="826" fill="#ffffff"></rect>
<defs><filter id="card" x="-25%" y="-25%" width="150%" height="150%"><feDropShadow dx="0" dy="2" stdDeviation="6" flood-color="#22305a" flood-opacity="0.13"></feDropShadow></filter></defs>
<rect x="0" y="0" width="1280" height="6" rx="0" ry="0" fill="#1F3864"></rect><rect x="50" y="38" width="103.8" height="24" rx="12" ry="12" fill="#1F3864"></rect><text x="101.9" y="54.5" font-size="12" font-weight="700" fill="#ffffff" text-anchor="middle" letter-spacing="1.2">FIGURE B2</text><text x="50" y="98" font-size="27" font-weight="700" fill="#1F3864" text-anchor="start">Communication Protocol Stack</text><text x="50" y="124" font-size="15" font-weight="400" fill="#44546A" text-anchor="start">ZMQ channels and patterns between each robot and the operations console.</text><line x1="50" y1="144" x2="1230" y2="144" stroke="#E6EAF2" stroke-width="1.5"></line><g transform="translate(244,176) scale(0.95)" fill="none" stroke="#1F3864" stroke-width="2" stroke-linecap="round" stroke-linejoin="round"><circle cx="0" cy="7" r="2"></circle><path d="M-6,7 A6,6 0 0,1 6,7"></path><path d="M-10,7 A10,10 0 0,1 10,7"></path><path d="M-13,7 A13,13 0 0,1 13,7" opacity="0.55"></path><path d="M0,5 L0,-3"></path><path d="M-1.7,5.6 L-8,1"></path><path d="M1.7,5.6 L8,1"></path></g><text x="266" y="182" font-size="14" font-weight="700" fill="#1F3864" text-anchor="start">ROBOT  ·  Alpha / Beta</text><g transform="translate(1024,176) scale(0.95)" fill="none" stroke="#1F3864" stroke-width="2" stroke-linecap="round" stroke-linejoin="round"><rect x="-11" y="-8.5" width="22" height="14" rx="1.6"></rect><line x1="-5" y1="9.5" x2="5" y2="9.5"></line><line x1="0" y1="5.5" x2="0" y2="9.5"></line><line x1="-6.5" y1="-4.5" x2="6.5" y2="-4.5"></line><line x1="-6.5" y1="0" x2="3" y2="0"></line></g><text x="1042" y="182" font-size="14" font-weight="700" fill="#1F3864" text-anchor="start">OPERATIONS CENTER</text><rect x="540" y="166" width="15" height="9" rx="2" ry="2" fill="#1F3864"></rect><text x="562" y="175" font-size="12.5" font-weight="600" fill="#1A1A1A" text-anchor="start">PUB · robot → console</text><rect x="720" y="166" width="15" height="9" rx="2" ry="2" fill="#4A5C86"></rect><text x="742" y="175" font-size="12.5" font-weight="600" fill="#1A1A1A" text-anchor="start">commands · console → robot, ACKed</text><rect x="210" y="206" width="860" height="402" rx="14" ry="14" fill="#F5F7FB" stroke="#1F3864" stroke-width="1.6"></rect><rect x="210" y="206" width="860" height="402" rx="14" fill="none" stroke="#1F3864" stroke-width="1.6" stroke-dasharray="7 5"></rect><rect x="234" y="192" width="420" height="28" rx="14" ry="14" fill="#1F3864"></rect><text x="444" y="211" font-size="13" font-weight="700" fill="#ffffff" text-anchor="middle">versioned msgpack envelope  ·  { v, seq, type, payload }</text><rect x="234" y="240" width="812" height="62" rx="10" ry="10" fill="#ffffff" stroke="#E6EAF2" stroke-width="1.4"></rect><rect x="250" y="255" width="62" height="32" rx="8" ry="8" fill="#1F3864"></rect><text x="281" y="276" font-size="15" font-weight="700" fill="#ffffff" text-anchor="middle">5556</text><text x="326" y="268" font-size="16.5" font-weight="700" fill="#1A1A1A" text-anchor="start">telemetry</text><text x="326" y="288" font-size="12.5" font-weight="400" fill="#44546A" text-anchor="start">tele.full 20 Hz · tele.scan ≤ 5 Hz</text><line x1="704" y1="271" x2="785" y2="271" stroke="#1F3864" stroke-width="2.6" stroke-linecap="round"></line><polygon points="794,271 785,275.68 785,266.32" fill="#1F3864"></polygon><rect x="987" y="254" width="43" height="24" rx="12" ry="12" fill="#E9EDF5" stroke="#1F3864" stroke-width="1.1"></rect><text x="1008.5" y="270" font-size="12" font-weight="700" fill="#1F3864" text-anchor="middle">PUB</text><rect x="234" y="318" width="812" height="62" rx="10" ry="10" fill="#ffffff" stroke="#E6EAF2" stroke-width="1.4"></rect><rect x="250" y="333" width="62" height="32" rx="8" ry="8" fill="#1F3864"></rect><text x="281" y="354" font-size="15" font-weight="700" fill="#ffffff" text-anchor="middle">5557</text><text x="326" y="346" font-size="16.5" font-weight="700" fill="#1A1A1A" text-anchor="start">map</text><text x="326" y="366" font-size="12.5" font-weight="400" fill="#44546A" text-anchor="start">map.grid ≤ 1 Hz · zlib compressed</text><line x1="704" y1="349" x2="785" y2="349" stroke="#1F3864" stroke-width="2.6" stroke-linecap="round"></line><polygon points="794,349 785,353.68 785,344.32" fill="#1F3864"></polygon><rect x="987" y="332" width="43" height="24" rx="12" ry="12" fill="#E9EDF5" stroke="#1F3864" stroke-width="1.1"></rect><text x="1008.5" y="348" font-size="12" font-weight="700" fill="#1F3864" text-anchor="middle">PUB</text><rect x="234" y="396" width="812" height="62" rx="10" ry="10" fill="#ffffff" stroke="#E6EAF2" stroke-width="1.4"></rect><rect x="250" y="411" width="62" height="32" rx="8" ry="8" fill="#1F3864"></rect><text x="281" y="432" font-size="15" font-weight="700" fill="#ffffff" text-anchor="middle">5559</text><text x="326" y="424" font-size="16.5" font-weight="700" fill="#1A1A1A" text-anchor="start">health</text><text x="326" y="444" font-size="12.5" font-weight="400" fill="#44546A" text-anchor="start">1 Hz · temp · throttle · RSSI</text><line x1="704" y1="427" x2="785" y2="427" stroke="#1F3864" stroke-width="2.6" stroke-linecap="round"></line><polygon points="794,427 785,431.68 785,422.32" fill="#1F3864"></polygon><rect x="987" y="410" width="43" height="24" rx="12" ry="12" fill="#E9EDF5" stroke="#1F3864" stroke-width="1.1"></rect><text x="1008.5" y="426" font-size="12" font-weight="700" fill="#1F3864" text-anchor="middle">PUB</text><rect x="234" y="474" width="812" height="62" rx="10" ry="10" fill="#ffffff" stroke="#E6EAF2" stroke-width="1.4"></rect><rect x="250" y="489" width="62" height="32" rx="8" ry="8" fill="#1F3864"></rect><text x="281" y="510" font-size="15" font-weight="700" fill="#ffffff" text-anchor="middle">5560</text><text x="326" y="502" font-size="16.5" font-weight="700" fill="#1A1A1A" text-anchor="start">video</text><text x="326" y="522" font-size="12.5" font-weight="400" fill="#44546A" text-anchor="start">JPEG · 15 fps</text><line x1="704" y1="505" x2="785" y2="505" stroke="#1F3864" stroke-width="2.6" stroke-linecap="round"></line><polygon points="794,505 785,509.68 785,500.32" fill="#1F3864"></polygon><rect x="987" y="488" width="43" height="24" rx="12" ry="12" fill="#E9EDF5" stroke="#1F3864" stroke-width="1.1"></rect><text x="1008.5" y="504" font-size="12" font-weight="700" fill="#1F3864" text-anchor="middle">PUB</text><rect x="234" y="552" width="812" height="62" rx="10" ry="10" fill="#ffffff" stroke="#E6EAF2" stroke-width="1.4"></rect><rect x="250" y="567" width="62" height="32" rx="8" ry="8" fill="#4A5C86"></rect><text x="281" y="588" font-size="15" font-weight="700" fill="#ffffff" text-anchor="middle">5558</text><text x="326" y="580" font-size="16.5" font-weight="700" fill="#1A1A1A" text-anchor="start">commands</text><text x="326" y="600" font-size="12.5" font-weight="400" fill="#44546A" text-anchor="start">ACKed · dedup · deadman</text><line x1="704" y1="583" x2="794" y2="583" stroke="#4A5C86" stroke-width="2.6"></line><polygon points="704,583 713,578.32 713,587.68" fill="#4A5C86"></polygon><polygon points="794,583 785,587.68 785,578.32" fill="#4A5C86"></polygon><rect x="903" y="566" width="127" height="24" rx="12" ry="12" fill="#EEF1F7" stroke="#4A5C86" stroke-width="1.1"></rect><text x="966.5" y="582" font-size="12" font-weight="700" fill="#4A5C86" text-anchor="middle">ROUTER / DEALER</text><rect x="210" y="626" width="860" height="60" rx="12" ry="12" fill="#ECF4ED" stroke="#4E9A51" stroke-width="1.5"></rect><rect x="226" y="641" width="86" height="30" rx="8" ry="8" fill="#4E9A51"></rect><text x="269" y="661" font-size="13" font-weight="700" fill="#ffffff" text-anchor="middle">Gamma</text><text x="328" y="653" font-size="15.5" font-weight="700" fill="#1A1A1A" text-anchor="start">HTTP / JSON  ·  no ZMQ envelope</text><text x="328" y="673" font-size="12.5" font-weight="400" fill="#44546A" text-anchor="start">GET /telemetry (3 Hz)  ·  POST /control?dir=</text><line x1="770" y1="656" x2="850" y2="656" stroke="#4E9A51" stroke-width="2.6"></line><polygon points="770,656 779,651.32 779,660.68" fill="#4E9A51"></polygon><polygon points="850,656 841,660.68 841,651.32" fill="#4E9A51"></polygon><rect x="996" y="641" width="58" height="24" rx="12" ry="12" fill="#ffffff" stroke="#4E9A51" stroke-width="1.1"></rect><text x="1025" y="657" font-size="12" font-weight="700" fill="#4E9A51" text-anchor="middle">REST</text><line x1="210" y1="200" x2="210" y2="686" stroke="#E6EAF2" stroke-width="1"></line><line x1="50" y1="782" x2="1230" y2="782" stroke="#E6EAF2" stroke-width="1.5"></line><rect x="50" y="796" width="11" height="11" rx="2.5" ry="2.5" fill="#1F3864"></rect><text x="68" y="805" font-size="12.5" font-weight="700" fill="#1F3864" text-anchor="start">Swarm Robot System</text><text x="1230" y="805" font-size="12" font-weight="400" fill="#8A94A6" text-anchor="end">§3.6 Communication Design · §4.2.4</text>
</svg>