<svg xmlns="http://www.w3.org/2000/svg" viewBox="0 0 1200 744" width="1200" height="744" font-family="Calibri, &#39;Segoe UI&#39;, &#39;Helvetica Neue&#39;, Arial, sans-serif">
<rect x="0" y="0" width="1200" height="744" fill="#ffffff"></rect>
<defs><filter id="card" x="-25%" y="-25%" width="150%" height="150%"><feDropShadow dx="0" dy="2" stdDeviation="6" flood-color="#22305a" flood-opacity="0.13"></feDropShadow></filter></defs>
<rect x="0" y="0" width="1200" height="6" rx="0" ry="0" fill="#1F3864"></rect><rect x="50" y="38" width="112" height="24" rx="12" ry="12" fill="#1F3864"></rect><text x="106" y="54.5" font-size="12" font-weight="700" fill="#ffffff" text-anchor="middle" letter-spacing="1.2">FIGURE B5a</text><text x="50" y="98" font-size="27" font-weight="700" fill="#1F3864" text-anchor="start">Hardware Block Diagram — Alpha (Mapper)</text><text x="50" y="124" font-size="15" font-weight="400" fill="#44546A" text-anchor="start">Compute, sensors, actuators and power for the mapping robot.</text><line x1="50" y1="144" x2="1150" y2="144" stroke="#E6EAF2" stroke-width="1.5"></line><text x="110" y="178" font-size="11.5" font-weight="700" fill="#8A94A6" text-anchor="start" letter-spacing="1.5">SENSORS</text><text x="820" y="178" font-size="11.5" font-weight="700" fill="#8A94A6" text-anchor="start" letter-spacing="1.5">ACTUATORS</text><text x="110" y="538" font-size="11.5" font-weight="700" fill="#8A94A6" text-anchor="start" letter-spacing="1.5">POWER</text><rect x="110" y="300" width="250" height="78" rx="10" ry="10" fill="#ffffff" stroke="#E6EAF2" stroke-width="1.4" filter="url(#card)"></rect><g transform="translate(134,339) scale(0.66)" fill="none" stroke="#2E6FB7" stroke-width="2" stroke-linecap="round" stroke-linejoin="round"><circle cx="0" cy="7" r="2"></circle><path d="M-6,7 A6,6 0 0,1 6,7"></path><path d="M-10,7 A10,10 0 0,1 10,7"></path><path d="M-13,7 A13,13 0 0,1 13,7" opacity="0.55"></path><path d="M0,5 L0,-3"></path><path d="M-1.7,5.6 L-8,1"></path><path d="M1.7,5.6 L8,1"></path></g><text x="154" y="336" font-size="14.5" font-weight="700" fill="#1A1A1A" text-anchor="start">RPLIDAR A1M8</text><text x="154" y="354" font-size="11.5" font-weight="400" fill="#44546A" text-anchor="start">360° laser scanner</text><rect x="465" y="296" width="250" height="86" rx="11" ry="11" fill="#ffffff" stroke="#2E6FB7" stroke-width="1.6" filter="url(#card)"></rect><path d="M465,334 L465,307 Q465,296 476,296 L704,296 Q715,296 715,307 L715,334 Z" fill="#2E6FB7"></path><text x="481" y="321" font-size="16" font-weight="700" fill="#ffffff" text-anchor="start">Raspberry Pi 4</text><text x="481" y="358" font-size="12.5" font-weight="400" fill="#44546A" text-anchor="start">ROS 2 Humble · domain 11</text><rect x="465" y="438" width="250" height="78" rx="11" ry="11" fill="#ffffff" stroke="#2E6FB7" stroke-width="1.6" filter="url(#card)"></rect><path d="M465,476 L465,449 Q465,438 476,438 L704,438 Q715,438 715,449 L715,476 Z" fill="#2E6FB7"></path><text x="481" y="463" font-size="16" font-weight="700" fill="#ffffff" text-anchor="start">Arduino Mega 2560</text><text x="481" y="500" font-size="12.5" font-weight="400" fill="#44546A" text-anchor="start">50 Hz sensor packet</text><rect x="820" y="300" width="260" height="78" rx="10" ry="10" fill="#ffffff" stroke="#E6EAF2" stroke-width="1.4" filter="url(#card)"></rect><g transform="translate(844,339) scale(0.66)" fill="none" stroke="#2E6FB7" stroke-width="2" stroke-linecap="round" stroke-linejoin="round"><path d="M2,-11 L-6,2 L0,2 L-2,11 L7,-3 L1,-3 Z"></path></g><text x="864" y="344" font-size="14.5" font-weight="700" fill="#1A1A1A" text-anchor="start">L298N motor driver ×2</text><rect x="820" y="440" width="280" height="92" rx="10" ry="10" fill="#ffffff" stroke="#E6EAF2" stroke-width="1.4" filter="url(#card)"></rect><circle cx="838" cy="486" r="4.2" fill="#2E6FB7"></circle><text x="850" y="483" font-size="14.5" font-weight="700" fill="#1A1A1A" text-anchor="start">4× JGB37-520 motors</text><text x="850" y="501" font-size="11.5" font-weight="400" fill="#44546A" text-anchor="start">Hall encoders present · inactive</text><rect x="110" y="556" width="280" height="78" rx="10" ry="10" fill="#ffffff" stroke="#E6EAF2" stroke-width="1.4" filter="url(#card)"></rect><g transform="translate(134,595) scale(0.66)" fill="none" stroke="#2E6FB7" stroke-width="2" stroke-linecap="round" stroke-linejoin="round"><rect x="-11" y="-6" width="20" height="12" rx="1.5"></rect><rect x="9" y="-3" width="3" height="6" rx="1"></rect><line x1="-6" y1="0" x2="-1" y2="0"></line><line x1="3.5" y1="0" x2="3.5" y2="0"></line></g><text x="154" y="592" font-size="14.5" font-weight="700" fill="#1A1A1A" text-anchor="start">3S LiPo · 11.1 V</text><text x="154" y="610" font-size="11.5" font-weight="400" fill="#44546A" text-anchor="start">5200 mAh</text><rect x="430" y="556" width="250" height="78" rx="10" ry="10" fill="#ffffff" stroke="#E6EAF2" stroke-width="1.4" filter="url(#card)"></rect><g transform="translate(454,595) scale(0.66)" fill="none" stroke="#2E6FB7" stroke-width="2" stroke-linecap="round" stroke-linejoin="round"><path d="M2,-11 L-6,2 L0,2 L-2,11 L7,-3 L1,-3 Z"></path></g><text x="474" y="592" font-size="14.5" font-weight="700" fill="#1A1A1A" text-anchor="start">XL4015 buck</text><text x="474" y="610" font-size="11.5" font-weight="400" fill="#44546A" text-anchor="start">≈ 5.25 V output</text><polyline points="360,339 465,339" fill="none" stroke="#2E6FB7" stroke-width="2" stroke-linejoin="round" stroke-linecap="round"></polyline><polygon points="465,339 456.5,343.42 456.5,334.58" fill="#2E6FB7"></polygon><rect x="394.4" y="328" width="35.2" height="22" rx="11" ry="11" fill="#ffffff" stroke="#8A94A6" stroke-width="1.1"></rect><text x="412" y="343" font-size="11.5" font-weight="600" fill="#1A1A1A" text-anchor="middle">USB</text><polyline points="590,382 590,438" fill="none" stroke="#44546A" stroke-width="2" stroke-linejoin="round" stroke-linecap="round"></polyline><rect x="572.4" y="399" width="35.2" height="22" rx="11" ry="11" fill="#ffffff" stroke="#8A94A6" stroke-width="1.1"></rect><text x="590" y="414" font-size="11.5" font-weight="600" fill="#1A1A1A" text-anchor="middle">USB</text><polyline points="715,477 770,477 770,339 820,339" fill="none" stroke="#44546A" stroke-width="2" stroke-linejoin="round" stroke-linecap="round"></polyline><polygon points="820,339 811.5,343.42 811.5,334.58" fill="#44546A"></polygon><rect x="730" y="397" width="80" height="22" rx="11" ry="11" fill="#ffffff" stroke="#8A94A6" stroke-width="1.1"></rect><text x="770" y="412" font-size="11.5" font-weight="600" fill="#1A1A1A" text-anchor="middle">GPIO / PWM</text><polyline points="950,378 950,440" fill="none" stroke="#44546A" stroke-width="2" stroke-linejoin="round" stroke-linecap="round"></polyline><polygon points="950,440 945.58,431.5 954.42,431.5" fill="#44546A"></polygon><rect x="926" y="398" width="48" height="22" rx="11" ry="11" fill="#ffffff" stroke="#8A94A6" stroke-width="1.1"></rect><text x="950" y="413" font-size="11.5" font-weight="600" fill="#1A1A1A" text-anchor="middle">drive</text><polyline points="390,594 430,594" fill="none" stroke="#44546A" stroke-width="2" stroke-linejoin="round" stroke-linecap="round"></polyline><polygon points="430,594 421.5,598.42 421.5,589.58" fill="#44546A"></polygon><rect x="-24" y="-11" width="48" height="22" rx="11" ry="11" fill="#ffffff" stroke="#8A94A6" stroke-width="1.1"></rect><text x="null" y="4" font-size="11.5" font-weight="600" fill="#1A1A1A" text-anchor="middle">power</text><polyline points="390,594 430,594" fill="none" stroke="#44546A" stroke-width="2" stroke-linejoin="round" stroke-linecap="round"></polyline><polygon points="430,594 421.5,598.42 421.5,589.58" fill="#44546A"></polygon><polyline points="555,556 555,532 590,532 590,516" fill="none" stroke="#4E9A51" stroke-width="2" stroke-linejoin="round" stroke-linecap="round"></polyline><polygon points="590,516 594.42,524.5 585.58,524.5" fill="#4E9A51"></polygon><rect x="551.2" y="517" width="41.6" height="22" rx="11" ry="11" fill="#ffffff" stroke="#8A94A6" stroke-width="1.1"></rect><text x="572" y="532" font-size="11.5" font-weight="600" fill="#1A1A1A" text-anchor="middle">≈5 V</text><polyline points="250,634 250,664 1110,664 1110,339 1080,339" fill="none" stroke="#1F3864" stroke-width="2.4" stroke-linejoin="round" stroke-linecap="round"></polyline><polygon points="1080,339 1088.5,334.58 1088.5,343.42" fill="#1F3864"></polygon><rect x="561.6" y="653" width="156.8" height="22" rx="11" ry="11" fill="#ffffff" stroke="#8A94A6" stroke-width="1.1"></rect><text x="640" y="668" font-size="11.5" font-weight="600" fill="#1A1A1A" text-anchor="middle">11.1 V · motors direct</text><line x1="50" y1="700" x2="1150" y2="700" stroke="#E6EAF2" stroke-width="1.5"></line><rect x="50" y="714" width="11" height="11" rx="2.5" ry="2.5" fill="#1F3864"></rect><text x="68" y="723" font-size="12.5" font-weight="700" fill="#1F3864" text-anchor="start">Swarm Robot System</text><text x="1150" y="723" font-size="12" font-weight="400" fill="#8A94A6" text-anchor="end">§3.5.1 Hardware Design</text>
</svg>