<svg xmlns="http://www.w3.org/2000/svg" viewBox="0 0 1280 900" width="1280" height="900" font-family="Calibri, &#39;Segoe UI&#39;, &#39;Helvetica Neue&#39;, Arial, sans-serif">
<rect x="0" y="0" width="1280" height="900" fill="#ffffff"></rect>
<defs><filter id="card" x="-25%" y="-25%" width="150%" height="150%"><feDropShadow dx="0" dy="2" stdDeviation="6" flood-color="#22305a" flood-opacity="0.13"></feDropShadow></filter></defs>
<rect x="0" y="0" width="1280" height="6" rx="0" ry="0" fill="#1F3864"></rect><rect x="50" y="38" width="103.8" height="24" rx="12" ry="12" fill="#1F3864"></rect><text x="101.9" y="54.5" font-size="12" font-weight="700" fill="#ffffff" text-anchor="middle" letter-spacing="1.2">FIGURE C2</text><text x="50" y="98" font-size="27" font-weight="700" fill="#1F3864" text-anchor="start">Fire-Detection Pipeline (3-stage)</text><text x="50" y="124" font-size="15" font-weight="400" fill="#44546A" text-anchor="start">Beta camera frames through a crash-isolated YOLO worker to map markers and the alarm gate.</text><line x1="50" y1="144" x2="1230" y2="144" stroke="#E6EAF2" stroke-width="1.5"></line><rect x="300" y="176" width="160" height="72" rx="10" ry="10" fill="#ffffff" stroke="#C0504D" stroke-width="1.8" filter="url(#card)"></rect><text x="380" y="209" font-size="15.5" font-weight="700" fill="#1A1A1A" text-anchor="middle">Logitech C270</text><text x="380" y="228" font-size="12.5" font-weight="400" fill="#44546A" text-anchor="middle">camera</text><g transform="translate(326,194) scale(0.7)" fill="none" stroke="#C0504D" stroke-width="2" stroke-linecap="round" stroke-linejoin="round"><rect x="-11" y="-5" width="22" height="14" rx="2.5"></rect><path d="M-5,-5 l2.5,-3.5 h5 l2.5,3.5"></path><circle cx="0" cy="2.5" r="4.3"></circle></g><rect x="506" y="176" width="108" height="72" rx="10" ry="10" fill="#ffffff" stroke="#C0504D" stroke-width="1.8" filter="url(#card)"></rect><text x="560" y="209" font-size="15.5" font-weight="700" fill="#1A1A1A" text-anchor="middle">JPEG</text><text x="560" y="228" font-size="12.5" font-weight="400" fill="#44546A" text-anchor="middle">frame</text><rect x="656" y="176" width="180" height="72" rx="10" ry="10" fill="#ffffff" stroke="#C0504D" stroke-width="1.8" filter="url(#card)"></rect><text x="746" y="209" font-size="15.5" font-weight="700" fill="#1A1A1A" text-anchor="middle">ZMQ video</text><text x="746" y="228" font-size="12.5" font-weight="400" fill="#44546A" text-anchor="middle">channel · 5560</text><line x1="460" y1="212" x2="497" y2="212" stroke="#C0504D" stroke-width="2.3" stroke-linecap="round"></line><polygon points="506,212 497,216.68 497,207.32" fill="#C0504D"></polygon><line x1="614" y1="212" x2="647" y2="212" stroke="#C0504D" stroke-width="2.3" stroke-linecap="round"></line><polygon points="656,212 647,216.68 647,207.32" fill="#C0504D"></polygon><polyline points="746,248 746,274 640,274 640,300" fill="none" stroke="#C0504D" stroke-width="2.3" stroke-linejoin="round" stroke-linecap="round"></polyline><polygon points="640,300 635.32,291 644.68,291" fill="#C0504D"></polygon><rect x="470" y="300" width="340" height="66" rx="12" ry="12" fill="#F8EDEC" stroke="#C0504D" stroke-width="1.8" filter="url(#card)"></rect><text x="640" y="326" font-size="16.5" font-weight="700" fill="#1A1A1A" text-anchor="middle">YOLO worker</text><text x="640" y="346" font-size="12" font-weight="400" fill="#44546A" text-anchor="middle">crash-isolated subprocess · 3 detectors in parallel</text><rect x="150" y="430" width="300" height="78" rx="10" ry="10" fill="#ffffff" stroke="#C0504D" stroke-width="1.8" filter="url(#card)"></rect><text x="300" y="466" font-size="15.5" font-weight="700" fill="#1A1A1A" text-anchor="middle">yolov8s.pt</text><text x="300" y="485" font-size="12.5" font-weight="400" fill="#44546A" text-anchor="middle">COCO · person · dog · cat</text><line x1="640" y1="366" x2="308.8539946876123" y2="426.385448027553" stroke="#C0504D" stroke-width="2.3" stroke-linecap="round"></line><polygon points="300,428 308.0144276619399,421.7813707899946 309.69356171328474,430.98952526511147" fill="#C0504D"></polygon><rect x="490" y="430" width="300" height="78" rx="10" ry="10" fill="#ffffff" stroke="#C0504D" stroke-width="1.8" filter="url(#card)"></rect><text x="640" y="466" font-size="15.5" font-weight="700" fill="#1A1A1A" text-anchor="middle">fire.pt</text><text x="640" y="485" font-size="12.5" font-weight="400" fill="#44546A" text-anchor="middle">Fire class only</text><line x1="640" y1="366" x2="640" y2="419" stroke="#C0504D" stroke-width="2.3" stroke-linecap="round"></line><polygon points="640,428 635.32,419 644.68,419" fill="#C0504D"></polygon><rect x="830" y="430" width="300" height="78" rx="10" ry="10" fill="#ffffff" stroke="#C0504D" stroke-width="1.8" filter="url(#card)"></rect><text x="980" y="466" font-size="15.5" font-weight="700" fill="#1A1A1A" text-anchor="middle">classical flame-prop</text><text x="980" y="485" font-size="12.5" font-weight="400" fill="#44546A" text-anchor="middle">colour / motion heuristic</text><line x1="640" y1="366" x2="971.1460053123876" y2="426.385448027553" stroke="#C0504D" stroke-width="2.3" stroke-linecap="round"></line><polygon points="980,428 970.3064382867152,430.98952526511147 971.98557233806,421.7813707899946" fill="#C0504D"></polygon><rect x="510" y="566" width="260" height="60" rx="10" ry="10" fill="#ffffff" stroke="#C0504D" stroke-width="1.8" filter="url(#card)"></rect><text x="640" y="601" font-size="15.5" font-weight="700" fill="#1A1A1A" text-anchor="middle">Merge detections</text><line x1="300" y1="508" x2="631.1196472097962" y2="562.537353658084" stroke="#C0504D" stroke-width="2.3" stroke-linecap="round"></line><polygon points="640,564 630.3590711119999,567.1551371089901 631.8802233075925,557.919570207178" fill="#C0504D"></polygon><line x1="640" y1="508" x2="640" y2="555" stroke="#C0504D" stroke-width="2.3" stroke-linecap="round"></line><polygon points="640,564 635.32,555 644.68,555" fill="#C0504D"></polygon><line x1="980" y1="508" x2="648.8803527902038" y2="562.537353658084" stroke="#C0504D" stroke-width="2.3" stroke-linecap="round"></line><polygon points="640,564 648.1197766924075,557.919570207178 649.6409288880001,567.1551371089901" fill="#C0504D"></polygon><rect x="480" y="658" width="320" height="60" rx="10" ry="10" fill="#ffffff" stroke="#C0504D" stroke-width="1.8" filter="url(#card)"></rect><text x="640" y="685" font-size="15.5" font-weight="700" fill="#1A1A1A" text-anchor="middle">Project to map</text><text x="640" y="704" font-size="12.5" font-weight="400" fill="#44546A" text-anchor="middle">monocular · HFOV 62°</text><line x1="640" y1="626" x2="640" y2="649" stroke="#C0504D" stroke-width="2.3" stroke-linecap="round"></line><polygon points="640,658 635.32,649 644.68,649" fill="#C0504D"></polygon><rect x="360" y="752" width="250" height="80" rx="10" ry="10" fill="#ffffff" stroke="#C0504D" stroke-width="1.8" filter="url(#card)"></rect><text x="485" y="789" font-size="15.5" font-weight="700" fill="#1A1A1A" text-anchor="middle">Incident marker</text><text x="485" y="808" font-size="12.5" font-weight="400" fill="#44546A" text-anchor="middle">placed on shared map</text><rect x="672" y="748" width="250" height="88" rx="12" ry="12" fill="#C0504D" filter="url(#card)"></rect><text x="797" y="782" font-size="16" font-weight="700" fill="#ffffff" text-anchor="middle">Audible alarm</text><text x="797" y="803" font-size="13" font-weight="700" fill="#FBE3E0" text-anchor="middle">fire conf ≥ 0.80</text><g transform="translate(700,792) scale(0.7)" fill="none" stroke="#ffffff" stroke-width="2" stroke-linecap="round" stroke-linejoin="round"><path d="M-9,-4 h5 l6,-5 v18 l-6,-5 h-5 z"></path><path d="M6,-5 a7,7 0 0,1 0,10"></path><path d="M9,-8 a11,11 0 0,1 0,16"></path></g><rect x="842" y="720" width="80" height="22" rx="11" ry="11" fill="#ffffff" stroke="#C0504D" stroke-width="1.2"></rect><text x="882" y="735" font-size="10.5" font-weight="700" fill="#C0504D" text-anchor="middle">configured gate</text><polyline points="640,718 640,734 485,734 485,752" fill="none" stroke="#C0504D" stroke-width="2.3" stroke-linejoin="round" stroke-linecap="round"></polyline><polygon points="485,752 480.32,743 489.68,743" fill="#C0504D"></polygon><polyline points="640,718 640,734 797,734 797,748" fill="none" stroke="#C0504D" stroke-width="2.3" stroke-linejoin="round" stroke-linecap="round"></polyline><polygon points="797,748 792.32,739 801.68,739" fill="#C0504D"></polygon><line x1="50" y1="856" x2="1230" y2="856" stroke="#E6EAF2" stroke-width="1.5"></line><rect x="50" y="870" width="11" height="11" rx="2.5" ry="2.5" fill="#1F3864"></rect><text x="68" y="879" font-size="12.5" font-weight="700" fill="#1F3864" text-anchor="start">Swarm Robot System</text><text x="1230" y="879" font-size="12" font-weight="400" fill="#8A94A6" text-anchor="end">§4.2.2 Fire Detection</text>
</svg>